<?xml version="1.0" standalone="no"?>
<!DOCTYPE svg PUBLIC "-//W3C//DTD SVG 20010904//EN"
 "http://www.w3.org/TR/2001/REC-SVG-20010904/DTD/svg10.dtd">
<svg version="1.0" xmlns="http://www.w3.org/2000/svg"
 width="1000.000000pt" height="997.000000pt" viewBox="0 0 1000.000000 997.000000"
 preserveAspectRatio="xMidYMid meet">

<g transform="translate(0.000000,997.000000) scale(0.100000,-0.100000)"
fill="#000000" stroke="none">
<path d="M1355 9680 c-169 -169 -295 -288 -303 -285 -8 3 -10 0 -6 -6 4 -6
-53 -72 -132 -153 -115 -117 -119 -122 -24 -29 364 355 763 753 759 757 -3 3
-135 -125 -294 -284z"/>
<path d="M2020 9715 c140 -140 257 -255 260 -255 3 0 -110 115 -250 255 -140
140 -257 255 -260 255 -3 0 110 -115 250 -255z"/>
<path d="M2653 9678 l-292 -292 -38 34 -38 35 35 -38 34 -37 -214 -218 -215
-217 218 215 217 215 268 -265 267 -265 -265 267 -265 268 290 290 c329 330
300 300 294 300 -2 0 -136 -131 -296 -292z"/>
<path d="M3360 9675 l295 -295 -322 -322 c-296 -296 -323 -320 -340 -307 -17
13 -17 13 -4 -4 13 -17 -31 -64 -565 -598 -318 -319 -580 -582 -582 -584 -6
-13 48 40 587 579 534 534 581 578 598 565 17 -13 17 -13 4 4 -13 17 11 44
307 340 l322 322 323 -323 322 -322 -320 -320 c-183 -183 -326 -318 -333 -315
-7 3 -10 0 -7 -5 3 -5 -281 -295 -632 -644 -351 -349 -642 -638 -646 -642 -4
-5 -539 523 -1187 1171 -649 649 -1180 1175 -1180 1170 0 -6 529 -539 1175
-1185 l1175 -1175 -357 -357 c-196 -197 -355 -359 -352 -362 3 -3 604 594
1337 1327 l1332 1332 320 -320 320 -320 -305 -305 c-168 -168 -305 -310 -305
-315 0 -5 140 130 310 300 l310 310 970 -970 970 -970 -772 -772 c-425 -425
-768 -773 -763 -773 5 0 648 638 1427 1417 l1418 1418 650 -650 c357 -357 650
-645 650 -640 0 5 -290 300 -645 655 l-645 645 320 320 320 320 320 -320 c187
-187 318 -325 315 -333 -3 -8 0 -10 6 -6 7 4 114 -96 255 -237 134 -134 244
-239 244 -233 0 5 -255 264 -566 574 l-565 564 320 320 321 321 242 -240 243
-240 -240 243 -240 242 245 245 c135 135 240 245 235 245 -5 0 -118 -108 -250
-240 l-240 -240 -320 320 -320 320 135 137 135 138 -138 -135 -137 -135 -298
295 -297 295 295 -297 295 -298 -50 -52 -50 -53 53 50 52 50 320 -320 320
-320 -645 -645 -645 -645 -320 320 c-312 312 -319 320 -302 340 17 19 16 20
-3 3 -19 -16 -40 4 -670 628 l-650 644 295 297 c162 163 292 295 288 293 -4
-3 -138 -135 -298 -295 l-290 -289 -298 294 -297 295 295 -298 295 -297 -323
-322 -323 -321 -42 39 -42 39 38 -41 38 -41 -315 -314 c-174 -173 -316 -318
-316 -324 0 -5 144 134 320 310 l320 319 37 -34 38 -35 -35 38 -34 38 322 322
322 322 645 -645 c355 -355 643 -650 641 -657 -3 -7 0 -10 7 -7 7 2 155 -139
329 -313 l318 -318 -645 -645 -645 -645 -1295 1295 -1295 1295 320 320 320
320 42 -40 43 -40 -40 43 -39 42 294 298 295 297 -297 -295 -298 -295 -117
115 -118 115 115 -118 115 -117 -320 -320 -320 -320 -322 322 -323 323 293
295 292 295 -295 -293 -295 -292 -290 290 c-160 159 -294 290 -300 290 -5 0
123 -133 285 -295z"/>
<path d="M4540 9795 c96 -96 177 -175 180 -175 3 0 -74 79 -170 175 -96 96
-177 175 -180 175 -3 0 74 -79 170 -175z"/>
<path d="M7245 9692 c154 -155 432 -434 618 -620 198 -198 335 -342 332 -350
-3 -8 0 -10 6 -6 7 4 145 -127 330 -312 176 -175 319 -315 319 -311 0 5 -143
149 -317 322 l-318 313 55 59 55 58 -58 -55 -57 -54 -616 614 c-338 338 -618
617 -622 620 -4 2 119 -123 273 -278z"/>
<path d="M9340 9863 l-105 -108 108 105 c99 97 112 110 104 110 -1 0 -50 -48
-107 -107z"/>
<path d="M9572 9963 c0 -5 98 -102 217 -218 l216 -210 -215 218 c-118 119
-216 217 -217 217 -2 0 -2 -3 -1 -7z"/>
<path d="M490 9946 c0 -2 8 -10 18 -17 15 -13 16 -12 3 4 -13 16 -21 21 -21
13z"/>
<path d="M9189 9713 l-34 -38 38 34 c20 19 37 36 37 38 0 8 -8 0 -41 -34z"/>
<path d="M965 9470 c10 -11 20 -20 23 -20 3 0 -3 9 -13 20 -10 11 -20 20 -23
20 -3 0 3 -9 13 -20z"/>
<path d="M5050 9287 c0 -1 35 -36 78 -77 l77 -75 -75 78 c-69 71 -80 82 -80
74z"/>
<path d="M8709 9233 l-34 -38 38 34 c34 33 42 41 34 41 -2 0 -19 -17 -38 -37z"/>
<path d="M8609 9133 c-13 -16 -12 -17 4 -4 9 7 17 15 17 17 0 8 -8 3 -21 -13z"/>
<path d="M5240 9095 c19 -19 36 -35 39 -35 3 0 -10 16 -29 35 -19 19 -36 35
-39 35 -3 0 10 -16 29 -35z"/>
<path d="M8549 9073 l-34 -38 38 34 c34 33 42 41 34 41 -2 0 -19 -17 -38 -37z"/>
<path d="M5400 8935 c63 -63 117 -115 120 -115 2 0 -47 52 -110 115 -63 63
-117 115 -120 115 -2 0 47 -52 110 -115z"/>
<path d="M8444 8968 l-29 -33 33 29 c30 28 37 36 29 36 -2 0 -16 -15 -33 -32z"/>
<path d="M8379 8903 l-24 -28 28 24 c15 14 27 26 27 28 0 8 -8 1 -31 -24z"/>
<path d="M3050 8686 c0 -2 8 -10 18 -17 15 -13 16 -12 3 4 -13 16 -21 21 -21
13z"/>
<path d="M8134 8658 l-19 -23 23 19 c21 18 27 26 19 26 -2 0 -12 -10 -23 -22z"/>
<path d="M3120 8615 c19 -19 36 -35 39 -35 3 0 -10 16 -29 35 -19 19 -36 35
-39 35 -3 0 10 -16 29 -35z"/>
<path d="M5720 8615 c19 -19 36 -35 39 -35 3 0 -10 16 -29 35 -19 19 -36 35
-39 35 -3 0 10 -16 29 -35z"/>
<path d="M8054 8578 l-19 -23 23 19 c21 18 27 26 19 26 -2 0 -12 -10 -23 -22z"/>
<path d="M3200 8535 c19 -19 36 -35 39 -35 3 0 -10 16 -29 35 -19 19 -36 35
-39 35 -3 0 10 -16 29 -35z"/>
<path d="M5800 8535 c19 -19 36 -35 39 -35 3 0 -10 16 -29 35 -19 19 -36 35
-39 35 -3 0 10 -16 29 -35z"/>
<path d="M6659 8553 c-13 -16 -12 -17 4 -4 9 7 17 15 17 17 0 8 -8 3 -21 -13z"/>
<path d="M7974 8498 l-19 -23 23 19 c12 11 22 21 22 23 0 8 -8 2 -26 -19z"/>
<path d="M3265 8470 c10 -11 20 -20 23 -20 3 0 -3 9 -13 20 -10 11 -20 20 -23
20 -3 0 3 -9 13 -20z"/>
<path d="M5850 8486 c0 -2 8 -10 18 -17 15 -13 16 -12 3 4 -13 16 -21 21 -21
13z"/>
<path d="M5890 8446 c0 -2 8 -10 18 -17 15 -13 16 -12 3 4 -13 16 -21 21 -21
13z"/>
<path d="M7894 8418 l-19 -23 23 19 c21 18 27 26 19 26 -2 0 -12 -10 -23 -22z"/>
<path d="M3350 8385 c13 -14 26 -25 28 -25 3 0 -5 11 -18 25 -13 14 -26 25
-28 25 -3 0 5 -11 18 -25z"/>
<path d="M5960 8375 c19 -19 36 -35 39 -35 3 0 -10 16 -29 35 -19 19 -36 35
-39 35 -3 0 10 -16 29 -35z"/>
<path d="M7819 8343 c-13 -16 -12 -17 4 -4 9 7 17 15 17 17 0 8 -8 3 -21 -13z"/>
<path d="M6429 8323 c-13 -16 -12 -17 4 -4 9 7 17 15 17 17 0 8 -8 3 -21 -13z"/>
<path d="M6040 8295 c19 -19 36 -35 39 -35 3 0 -10 16 -29 35 -19 19 -36 35
-39 35 -3 0 10 -16 29 -35z"/>
<path d="M7779 8303 c-13 -16 -12 -17 4 -4 9 7 17 15 17 17 0 8 -8 3 -21 -13z"/>
<path d="M6090 8246 c0 -2 8 -10 18 -17 15 -13 16 -12 3 4 -13 16 -21 21 -21
13z"/>
<path d="M6339 8233 c-13 -16 -12 -17 4 -4 9 7 17 15 17 17 0 8 -8 3 -21 -13z"/>
<path d="M6165 8170 c21 -22 41 -40 44 -40 3 0 -13 18 -34 40 -21 22 -41 40
-44 40 -3 0 13 -18 34 -40z"/>
<path d="M6240 8096 c0 -2 8 -10 18 -17 15 -13 16 -12 3 4 -13 16 -21 21 -21
13z"/>
<path d="M6295 8040 c10 -11 20 -20 23 -20 3 0 -3 9 -13 20 -10 11 -20 20 -23
20 -3 0 3 -9 13 -20z"/>
<path d="M6094 7988 l-19 -23 23 19 c21 18 27 26 19 26 -2 0 -12 -10 -23 -22z"/>
<path d="M6330 8006 c0 -2 8 -10 18 -17 15 -13 16 -12 3 4 -13 16 -21 21 -21
13z"/>
<path d="M6370 7966 c0 -2 8 -10 18 -17 15 -13 16 -12 3 4 -13 16 -21 21 -21
13z"/>
<path d="M6004 7898 l-29 -33 33 29 c30 28 37 36 29 36 -2 0 -16 -15 -33 -32z"/>
<path d="M6410 7926 c0 -2 8 -10 18 -17 15 -13 16 -12 3 4 -13 16 -21 21 -21
13z"/>
<path d="M6450 7886 c0 -2 8 -10 18 -17 15 -13 16 -12 3 4 -13 16 -21 21 -21
13z"/>
<path d="M6505 7830 c10 -11 20 -20 23 -20 3 0 -3 9 -13 20 -10 11 -20 20 -23
20 -3 0 3 -9 13 -20z"/>
<path d="M5899 7793 c-13 -16 -12 -17 4 -4 9 7 17 15 17 17 0 8 -8 3 -21 -13z"/>
<path d="M6570 7766 c0 -2 8 -10 18 -17 15 -13 16 -12 3 4 -13 16 -21 21 -21
13z"/>
<path d="M5834 7728 l-19 -23 23 19 c21 18 27 26 19 26 -2 0 -12 -10 -23 -22z"/>
<path d="M6610 7726 c0 -2 8 -10 18 -17 15 -13 16 -12 3 4 -13 16 -21 21 -21
13z"/>
<path d="M6650 7686 c0 -2 8 -10 18 -17 15 -13 16 -12 3 4 -13 16 -21 21 -21
13z"/>
<path d="M5694 7588 l-19 -23 23 19 c21 18 27 26 19 26 -2 0 -12 -10 -23 -22z"/>
<path d="M6730 7606 c0 -2 8 -10 18 -17 15 -13 16 -12 3 4 -13 16 -21 21 -21
13z"/>
<path d="M5599 7493 c-13 -16 -12 -17 4 -4 9 7 17 15 17 17 0 8 -8 3 -21 -13z"/>
<path d="M6890 7445 c8 -11 15 -21 16 -23 1 -1 7 5 15 15 10 12 10 15 1 9 -7
-4 -20 -2 -30 6 -16 12 -16 11 -2 -7z"/>
<path d="M5509 7403 c-13 -16 -12 -17 4 -4 9 7 17 15 17 17 0 8 -8 3 -21 -13z"/>
<path d="M6990 7345 c19 -19 36 -35 39 -35 3 0 -10 16 -29 35 -19 19 -36 35
-39 35 -3 0 10 -16 29 -35z"/>
<path d="M5414 7308 l-19 -23 23 19 c21 18 27 26 19 26 -2 0 -12 -10 -23 -22z"/>
<path d="M7050 7286 c0 -2 8 -10 18 -17 15 -13 16 -12 3 4 -13 16 -21 21 -21
13z"/>
<path d="M5329 7223 l-24 -28 28 24 c15 14 27 26 27 28 0 8 -8 1 -31 -24z"/>
<path d="M7130 7206 c0 -2 8 -10 18 -17 15 -13 16 -12 3 4 -13 16 -21 21 -21
13z"/>
<path d="M5249 7143 l-24 -28 28 24 c15 14 27 26 27 28 0 8 -8 1 -31 -24z"/>
<path d="M5199 7093 c-13 -16 -12 -17 4 -4 9 7 17 15 17 17 0 8 -8 3 -21 -13z"/>
<path d="M5030 6923 l-95 -98 98 95 c90 88 102 100 94 100 -1 0 -45 -44 -97
-97z"/>
<path d="M4770 6663 l-155 -158 160 155 c87 85 161 156 164 158 2 1 0 2 -5 2
-5 0 -79 -71 -164 -157z"/>
<path d="M4440 6333 l-165 -168 168 165 c155 153 172 170 164 170 -1 0 -76
-75 -167 -167z"/>
<path d="M9100 4435 l-895 -895 -320 317 -320 318 317 -320 318 -320 -683
-684 c-375 -377 -662 -667 -637 -645 25 22 160 155 301 295 140 140 283 281
317 313 l62 59 315 -314 c173 -172 315 -318 315 -324 0 -5 -93 -104 -207 -220
l-208 -210 210 208 c116 114 215 207 220 207 11 0 1285 -1271 1285 -1282 0 -4
-32 -39 -71 -78 -39 -39 -69 -73 -67 -75 2 -3 35 27 73 65 38 39 74 70 80 70
5 0 120 -109 255 -242 l245 -243 -242 245 c-134 135 -243 250 -243 255 0 6
108 118 240 250 131 131 238 240 237 242 -2 1 -104 -98 -228 -220 -124 -122
-236 -231 -248 -241 l-22 -20 -639 639 c-352 352 -640 645 -640 651 0 8 945
953 1244 1244 l46 45 245 -245 c135 -135 245 -240 245 -235 0 6 -108 118 -240
250 l-240 240 242 242 c133 133 240 244 237 247 -3 3 -405 -395 -894 -884
-490 -490 -894 -890 -900 -890 -6 0 -152 142 -325 315 l-315 315 972 972 973
973 245 -245 c135 -135 245 -240 245 -235 0 6 -108 118 -240 250 l-240 240
242 242 c133 133 240 244 237 247 -3 3 -407 -397 -899 -889z"/>
<path d="M8019 4653 c-13 -16 -12 -17 4 -4 9 7 17 15 17 17 0 8 -8 3 -21 -13z"/>
<path d="M7939 4573 c-13 -16 -12 -17 4 -4 16 13 21 21 13 21 -2 0 -10 -8 -17
-17z"/>
<path d="M7819 4453 c-13 -16 -12 -17 4 -4 9 7 17 15 17 17 0 8 -8 3 -21 -13z"/>
<path d="M7779 4413 c-13 -16 -12 -17 4 -4 16 13 21 21 13 21 -2 0 -10 -8 -17
-17z"/>
<path d="M7739 4373 c-13 -16 -12 -17 4 -4 9 7 17 15 17 17 0 8 -8 3 -21 -13z"/>
<path d="M7699 4333 c-13 -16 -12 -17 4 -4 16 13 21 21 13 21 -2 0 -10 -8 -17
-17z"/>
<path d="M7659 4293 c-13 -16 -12 -17 4 -4 9 7 17 15 17 17 0 8 -8 3 -21 -13z"/>
<path d="M7619 4253 c-13 -16 -12 -17 4 -4 9 7 17 15 17 17 0 8 -8 3 -21 -13z"/>
<path d="M7564 4198 l-19 -23 23 19 c12 11 22 21 22 23 0 8 -8 2 -26 -19z"/>
<path d="M7474 4108 l-29 -33 33 29 c30 28 37 36 29 36 -2 0 -16 -15 -33 -32z"/>
<path d="M7399 4033 l-34 -38 38 34 c34 33 42 41 34 41 -2 0 -19 -17 -38 -37z"/>
<path d="M7295 3928 l-50 -53 53 50 c48 46 57 55 49 55 -1 0 -25 -24 -52 -52z"/>
<path d="M7219 3853 c-13 -16 -12 -17 4 -4 9 7 17 15 17 17 0 8 -8 3 -21 -13z"/>
<path d="M7179 3813 c-13 -16 -12 -17 4 -4 9 7 17 15 17 17 0 8 -8 3 -21 -13z"/>
<path d="M7055 3688 l-100 -103 103 100 c56 55 102 101 102 102 0 8 -12 -4
-105 -99z"/>
<path d="M5794 3728 l-29 -33 33 29 c17 17 32 31 32 33 0 8 -8 1 -36 -29z"/>
<path d="M5714 3648 l-29 -33 33 29 c17 17 32 31 32 33 0 8 -8 1 -36 -29z"/>
<path d="M5634 3568 l-29 -33 33 29 c17 17 32 31 32 33 0 8 -8 1 -36 -29z"/>
<path d="M6909 3543 l-34 -38 38 34 c34 33 42 41 34 41 -2 0 -19 -17 -38 -37z"/>
<path d="M5569 3503 c-13 -16 -12 -17 4 -4 9 7 17 15 17 17 0 8 -8 3 -21 -13z"/>
<path d="M8525 3210 c170 -170 312 -310 315 -310 3 0 -135 140 -305 310 -170
171 -312 310 -315 310 -3 0 135 -139 305 -310z"/>
<path d="M6829 3463 l-34 -38 38 34 c34 33 42 41 34 41 -2 0 -19 -17 -38 -37z"/>
<path d="M5469 3403 l-24 -28 28 24 c15 14 27 26 27 28 0 8 -8 1 -31 -24z"/>
<path d="M6635 3270 c-82 -82 -147 -150 -145 -150 3 0 73 68 155 150 82 83
147 150 145 150 -3 0 -73 -67 -155 -150z"/>
<path d="M5409 3343 c-13 -16 -12 -17 4 -4 16 13 21 21 13 21 -2 0 -10 -8 -17
-17z"/>
<path d="M5770 2403 c-388 -389 -583 -589 -435 -443 313 307 1152 1150 1145
1150 -3 0 -322 -318 -710 -707z"/>
<path d="M4934 2868 l-19 -23 23 19 c12 11 22 21 22 23 0 8 -8 2 -26 -19z"/>
<path d="M9185 2550 c176 -176 322 -320 325 -320 3 0 -139 144 -315 320 -176
176 -322 320 -325 320 -3 0 139 -144 315 -320z"/>
<path d="M4839 2773 l-34 -38 38 34 c20 19 37 36 37 38 0 8 -8 0 -41 -34z"/>
<path d="M4720 2655 c-41 -41 -72 -75 -69 -75 2 0 38 34 79 75 41 41 72 75 69
75 -2 0 -38 -34 -79 -75z"/>
<path d="M9750 2483 l-235 -238 238 235 c220 218 242 240 234 240 -1 0 -108
-107 -237 -237z"/>
<path d="M4280 2213 l-355 -358 358 355 c332 330 361 360 354 360 -1 0 -162
-161 -357 -357z"/>
<path d="M9175 1908 l-310 -313 313 310 c171 170 312 311 312 312 0 8 -27 -19
-315 -309z"/>
<path d="M9750 1985 c129 -129 237 -235 240 -235 3 0 -101 106 -230 235 -129
129 -237 235 -240 235 -3 0 101 -106 230 -235z"/>
<path d="M3875 1808 l-40 -43 43 40 c39 36 47 45 39 45 -2 0 -21 -19 -42 -42z"/>
<path d="M8515 1250 l-320 -320 465 -465 c256 -256 469 -465 475 -465 5 0
-200 210 -458 468 l-467 467 317 318 c175 174 316 317 313 317 -3 0 -149 -144
-325 -320z"/>
<path d="M8095 828 l-90 -93 93 90 c50 49 92 91 92 92 0 8 -12 -4 -95 -89z"/>
<path d="M7480 356 c0 -2 8 -10 18 -17 15 -13 16 -12 3 4 -13 16 -21 21 -21
13z"/>
<path d="M7810 26 c0 -2 8 -10 18 -17 15 -13 16 -12 3 4 -13 16 -21 21 -21 13z"/>
</g>
</svg>
